<svg xmlns="http://www.w3.org/2000/svg" width="96" height="128" viewBox="0 0 96 128" shape-rendering="crispEdges">
  <defs>
    <g id="down"><rect x="8" y="1" width="16" height="5" fill="#7c7f87"/><rect x="10" y="4" width="4" height="3" fill="#f0dc77"/><rect x="18" y="4" width="4" height="3" fill="#f0dc77"/><rect x="11" y="7" width="10" height="8" fill="#f3cfad"/><rect x="9" y="15" width="14" height="9" fill="#596a8e"/><rect x="10" y="24" width="5" height="5" fill="#53453b"/><rect x="17" y="24" width="5" height="5" fill="#53453b"/><rect x="9" y="29" width="6" height="2" fill="#2d241f"/><rect x="17" y="29" width="6" height="2" fill="#2d241f"/></g>
    <g id="left"><rect x="9" y="1" width="15" height="5" fill="#7c7f87"/><rect x="10" y="4" width="4" height="3" fill="#f0dc77"/><rect x="17" y="4" width="4" height="3" fill="#f0dc77"/><rect x="10" y="7" width="9" height="8" fill="#f3cfad"/><rect x="9" y="15" width="13" height="9" fill="#596a8e"/><rect x="8" y="24" width="5" height="5" fill="#53453b"/><rect x="16" y="24" width="5" height="5" fill="#53453b"/><rect x="8" y="29" width="6" height="2" fill="#2d241f"/><rect x="16" y="29" width="6" height="2" fill="#2d241f"/></g>
    <g id="right"><rect x="8" y="1" width="15" height="5" fill="#7c7f87"/><rect x="11" y="4" width="4" height="3" fill="#f0dc77"/><rect x="18" y="4" width="4" height="3" fill="#f0dc77"/><rect x="13" y="7" width="9" height="8" fill="#f3cfad"/><rect x="11" y="15" width="13" height="9" fill="#596a8e"/><rect x="11" y="24" width="5" height="5" fill="#53453b"/><rect x="19" y="24" width="5" height="5" fill="#53453b"/><rect x="10" y="29" width="6" height="2" fill="#2d241f"/><rect x="18" y="29" width="6" height="2" fill="#2d241f"/></g>
    <g id="up"><rect x="8" y="1" width="16" height="6" fill="#7c7f87"/><rect x="10" y="4" width="4" height="3" fill="#f0dc77"/><rect x="18" y="4" width="4" height="3" fill="#f0dc77"/><rect x="11" y="8" width="10" height="5" fill="#d0af89"/><rect x="9" y="13" width="14" height="11" fill="#596a8e"/><rect x="10" y="24" width="5" height="5" fill="#53453b"/><rect x="17" y="24" width="5" height="5" fill="#53453b"/><rect x="9" y="29" width="6" height="2" fill="#2d241f"/><rect x="17" y="29" width="6" height="2" fill="#2d241f"/></g>
  </defs>
  <use href="#down" x="0" y="0"/><use href="#down" x="32" y="0"/><use href="#down" x="64" y="0"/>
  <use href="#left" x="0" y="32"/><use href="#left" x="32" y="32"/><use href="#left" x="64" y="32"/>
  <use href="#right" x="0" y="64"/><use href="#right" x="32" y="64"/><use href="#right" x="64" y="64"/>
  <use href="#up" x="0" y="96"/><use href="#up" x="32" y="96"/><use href="#up" x="64" y="96"/>
</svg>
