<svg xmlns="http://www.w3.org/2000/svg" width="96" height="128" viewBox="0 0 96 128" shape-rendering="crispEdges">
  <defs>
    <g id="down"><rect x="7" y="1" width="18" height="5" fill="#4f7d3b"/><rect x="11" y="6" width="10" height="8" fill="#f3d2af"/><rect x="9" y="14" width="14" height="10" fill="#6b9354"/><rect x="10" y="24" width="5" height="5" fill="#5b4030"/><rect x="17" y="24" width="5" height="5" fill="#5b4030"/><rect x="9" y="29" width="6" height="2" fill="#2f221a"/><rect x="17" y="29" width="6" height="2" fill="#2f221a"/></g>
    <g id="left"><rect x="9" y="1" width="16" height="5" fill="#4f7d3b"/><rect x="10" y="6" width="9" height="8" fill="#f3d2af"/><rect x="9" y="14" width="13" height="10" fill="#6b9354"/><rect x="8" y="24" width="5" height="5" fill="#5b4030"/><rect x="16" y="24" width="5" height="5" fill="#5b4030"/><rect x="8" y="29" width="6" height="2" fill="#2f221a"/><rect x="16" y="29" width="6" height="2" fill="#2f221a"/></g>
    <g id="right"><rect x="7" y="1" width="16" height="5" fill="#4f7d3b"/><rect x="13" y="6" width="9" height="8" fill="#f3d2af"/><rect x="11" y="14" width="13" height="10" fill="#6b9354"/><rect x="11" y="24" width="5" height="5" fill="#5b4030"/><rect x="19" y="24" width="5" height="5" fill="#5b4030"/><rect x="10" y="29" width="6" height="2" fill="#2f221a"/><rect x="18" y="29" width="6" height="2" fill="#2f221a"/></g>
    <g id="up"><rect x="7" y="1" width="18" height="6" fill="#4f7d3b"/><rect x="11" y="7" width="10" height="6" fill="#d2b08a"/><rect x="9" y="13" width="14" height="11" fill="#6b9354"/><rect x="10" y="24" width="5" height="5" fill="#5b4030"/><rect x="17" y="24" width="5" height="5" fill="#5b4030"/><rect x="9" y="29" width="6" height="2" fill="#2f221a"/><rect x="17" y="29" width="6" height="2" fill="#2f221a"/></g>
  </defs>
  <use href="#down" x="0" y="0"/><use href="#down" x="32" y="0"/><use href="#down" x="64" y="0"/>
  <use href="#left" x="0" y="32"/><use href="#left" x="32" y="32"/><use href="#left" x="64" y="32"/>
  <use href="#right" x="0" y="64"/><use href="#right" x="32" y="64"/><use href="#right" x="64" y="64"/>
  <use href="#up" x="0" y="96"/><use href="#up" x="32" y="96"/><use href="#up" x="64" y="96"/>
</svg>
