<svg xmlns="http://www.w3.org/2000/svg" width="96" height="128" viewBox="0 0 96 128" shape-rendering="crispEdges">
  <defs>
    <g id="down"><rect x="8" y="1" width="16" height="5" fill="#32435d"/><rect x="11" y="6" width="10" height="8" fill="#f2d2b2"/><rect x="9" y="14" width="14" height="10" fill="#425f88"/><rect x="10" y="24" width="5" height="5" fill="#4e4335"/><rect x="17" y="24" width="5" height="5" fill="#4e4335"/><rect x="9" y="29" width="6" height="2" fill="#2a241d"/><rect x="17" y="29" width="6" height="2" fill="#2a241d"/><rect x="12" y="10" width="8" height="2" fill="#f0d87b"/></g>
    <g id="left"><rect x="9" y="1" width="15" height="5" fill="#32435d"/><rect x="10" y="6" width="9" height="8" fill="#f2d2b2"/><rect x="9" y="14" width="13" height="10" fill="#425f88"/><rect x="8" y="24" width="5" height="5" fill="#4e4335"/><rect x="16" y="24" width="5" height="5" fill="#4e4335"/><rect x="8" y="29" width="6" height="2" fill="#2a241d"/><rect x="16" y="29" width="6" height="2" fill="#2a241d"/><rect x="11" y="10" width="7" height="2" fill="#f0d87b"/></g>
    <g id="right"><rect x="8" y="1" width="15" height="5" fill="#32435d"/><rect x="13" y="6" width="9" height="8" fill="#f2d2b2"/><rect x="11" y="14" width="13" height="10" fill="#425f88"/><rect x="11" y="24" width="5" height="5" fill="#4e4335"/><rect x="19" y="24" width="5" height="5" fill="#4e4335"/><rect x="10" y="29" width="6" height="2" fill="#2a241d"/><rect x="18" y="29" width="6" height="2" fill="#2a241d"/><rect x="14" y="10" width="7" height="2" fill="#f0d87b"/></g>
    <g id="up"><rect x="8" y="1" width="16" height="6" fill="#32435d"/><rect x="11" y="7" width="10" height="6" fill="#d0af88"/><rect x="9" y="13" width="14" height="11" fill="#425f88"/><rect x="10" y="24" width="5" height="5" fill="#4e4335"/><rect x="17" y="24" width="5" height="5" fill="#4e4335"/><rect x="9" y="29" width="6" height="2" fill="#2a241d"/><rect x="17" y="29" width="6" height="2" fill="#2a241d"/></g>
  </defs>
  <use href="#down" x="0" y="0"/><use href="#down" x="32" y="0"/><use href="#down" x="64" y="0"/>
  <use href="#left" x="0" y="32"/><use href="#left" x="32" y="32"/><use href="#left" x="64" y="32"/>
  <use href="#right" x="0" y="64"/><use href="#right" x="32" y="64"/><use href="#right" x="64" y="64"/>
  <use href="#up" x="0" y="96"/><use href="#up" x="32" y="96"/><use href="#up" x="64" y="96"/>
</svg>
