<svg xmlns="http://www.w3.org/2000/svg" width="96" height="128" viewBox="0 0 96 128" shape-rendering="crispEdges">
  <defs>
    <g id="down"><rect x="10" y="3" width="12" height="6" fill="#8a6345"/><rect x="8" y="9" width="16" height="12" rx="2" fill="#b38458"/><rect x="11" y="12" width="3" height="3" fill="#fff"/><rect x="18" y="12" width="3" height="3" fill="#fff"/><rect x="14" y="16" width="4" height="3" fill="#f0b13e"/><rect x="10" y="21" width="4" height="7" fill="#8a6345"/><rect x="18" y="21" width="4" height="7" fill="#8a6345"/><rect x="11" y="29" width="4" height="2" fill="#453126"/><rect x="17" y="29" width="4" height="2" fill="#453126"/></g>
    <g id="side"><rect x="10" y="3" width="12" height="6" fill="#8a6345"/><rect x="9" y="9" width="15" height="12" rx="2" fill="#b38458"/><rect x="18" y="12" width="3" height="3" fill="#fff"/><rect x="14" y="16" width="4" height="3" fill="#f0b13e"/><rect x="10" y="21" width="4" height="7" fill="#8a6345"/><rect x="18" y="21" width="4" height="7" fill="#8a6345"/><rect x="11" y="29" width="4" height="2" fill="#453126"/><rect x="17" y="29" width="4" height="2" fill="#453126"/></g>
    <g id="up"><rect x="10" y="3" width="12" height="6" fill="#8a6345"/><rect x="8" y="9" width="16" height="12" rx="2" fill="#b38458"/><rect x="12" y="12" width="8" height="4" fill="#d8b188"/><rect x="10" y="21" width="4" height="7" fill="#8a6345"/><rect x="18" y="21" width="4" height="7" fill="#8a6345"/><rect x="11" y="29" width="4" height="2" fill="#453126"/><rect x="17" y="29" width="4" height="2" fill="#453126"/></g>
  </defs>
  <use href="#down" x="0" y="0"/><use href="#down" x="32" y="0"/><use href="#down" x="64" y="0"/>
  <use href="#side" x="0" y="32"/><use href="#side" x="32" y="32"/><use href="#side" x="64" y="32"/>
  <use href="#side" x="0" y="64"/><use href="#side" x="32" y="64"/><use href="#side" x="64" y="64"/>
  <use href="#up" x="0" y="96"/><use href="#up" x="32" y="96"/><use href="#up" x="64" y="96"/>
</svg>
