<svg xmlns="http://www.w3.org/2000/svg" width="96" height="128" viewBox="0 0 96 128" shape-rendering="crispEdges">
  <defs>
    <g id="down"><rect x="8" y="2" width="16" height="4" fill="#5f3f2a"/><rect x="11" y="6" width="10" height="8" fill="#f6d0b2"/><rect x="10" y="14" width="12" height="9" fill="#b44945"/><rect x="9" y="23" width="5" height="6" fill="#243a59"/><rect x="18" y="23" width="5" height="6" fill="#243a59"/><rect x="8" y="29" width="6" height="2" fill="#3b2a1b"/><rect x="18" y="29" width="6" height="2" fill="#3b2a1b"/></g>
    <g id="left"><rect x="10" y="2" width="14" height="4" fill="#5f3f2a"/><rect x="10" y="6" width="9" height="8" fill="#f6d0b2"/><rect x="9" y="14" width="11" height="9" fill="#b44945"/><rect x="8" y="23" width="5" height="6" fill="#243a59"/><rect x="16" y="23" width="5" height="6" fill="#243a59"/><rect x="7" y="29" width="6" height="2" fill="#3b2a1b"/><rect x="16" y="29" width="6" height="2" fill="#3b2a1b"/></g>
    <g id="right"><rect x="8" y="2" width="14" height="4" fill="#5f3f2a"/><rect x="13" y="6" width="9" height="8" fill="#f6d0b2"/><rect x="12" y="14" width="11" height="9" fill="#b44945"/><rect x="11" y="23" width="5" height="6" fill="#243a59"/><rect x="19" y="23" width="5" height="6" fill="#243a59"/><rect x="10" y="29" width="6" height="2" fill="#3b2a1b"/><rect x="19" y="29" width="6" height="2" fill="#3b2a1b"/></g>
    <g id="up"><rect x="8" y="2" width="16" height="6" fill="#5f3f2a"/><rect x="11" y="8" width="10" height="5" fill="#d8aa86"/><rect x="10" y="13" width="12" height="10" fill="#b44945"/><rect x="9" y="23" width="5" height="6" fill="#243a59"/><rect x="18" y="23" width="5" height="6" fill="#243a59"/><rect x="8" y="29" width="6" height="2" fill="#3b2a1b"/><rect x="18" y="29" width="6" height="2" fill="#3b2a1b"/></g>
  </defs>
  <use href="#down" x="0" y="0"/><use href="#down" x="32" y="0"/><use href="#down" x="64" y="0"/>
  <use href="#left" x="0" y="32"/><use href="#left" x="32" y="32"/><use href="#left" x="64" y="32"/>
  <use href="#right" x="0" y="64"/><use href="#right" x="32" y="64"/><use href="#right" x="64" y="64"/>
  <use href="#up" x="0" y="96"/><use href="#up" x="32" y="96"/><use href="#up" x="64" y="96"/>
</svg>
